<?xml version="1.0" encoding="UTF-8"?>
<!DOCTYPE svg PUBLIC "-//W3C//DTD SVG 1.1//EN" "http://www.w3.org/Graphics/SVG/1.1/DTD/svg11.dtd">
<!-- Creator: CorelDRAW 2017 -->
<svg xmlns="http://www.w3.org/2000/svg" xml:space="preserve" width="122.514mm" height="34.7437mm" version="1.1" style="shape-rendering:geometricPrecision; text-rendering:geometricPrecision; image-rendering:optimizeQuality; fill-rule:evenodd; clip-rule:evenodd"
viewBox="0 0 12662.87 3591.06"
 xmlns:xlink="http://www.w3.org/1999/xlink">
 <defs>
  <style type="text/css">
   <![CDATA[
    .fil1 {fill:#CE0011}
    .fil0 {fill:white;fill-rule:nonzero}
   ]]>
  </style>
 </defs>
 <g id="Layer_x0020_1">
  <metadata id="CorelCorpID_0Corel-Layer"/>
  <g id="_2636215522048">
   <path class="fil0" d="M5305.24 3555.43l-1513.34 0 0 -3519.55 1503.32 0 0 452.56 -729.02 0 0 950.19 657.8 0 0 427.39 -657.8 0 0 1236.86 739.04 0 0 452.56zm121.56 -1411.21l703.85 0 0 807.83c0,80.46 48.69,120.69 145.86,120.69 93.88,0 140.82,-40.23 140.82,-119.81l0 -416.5c0,-127.4 -85.52,-277.34 -255.57,-449.15 -329.33,-318.45 -533.89,-533.02 -614.26,-641.95 -80.45,-109.72 -120.69,-229.53 -120.69,-361.1l0 -394.74c0,-455.85 299.11,-683.74 896.66,-683.74 535.44,0 802.78,207.77 802.78,623.4l0 609.2 -703.96 0 0 -645.15c0,-69.58 -39.36,-104.75 -118.16,-104.75 -92.12,0 -138.19,66.17 -138.19,198.53l15.06 228.75c0,130.8 87.17,282.49 261.4,455.95 323.5,309.22 529.62,524.57 617.66,646.91 87.95,123.12 131.58,261.4 131.58,417.27l0 448.38c0,467.62 -299.2,701.32 -898.39,701.32 -577.33,0 -866.43,-212.82 -866.43,-638.55l0 -802.78zm3543.84 -1650.83l-432.43 0 0 3062.04 -774.21 0 0 -3062.04 -432.43 0 0 -457.51 1639.07 0 0 457.51zm1660.07 3062.04l-1513.34 0 0 -3519.55 1503.32 0 0 452.56 -729.02 0 0 950.19 657.8 0 0 427.39 -657.8 0 0 1236.86 739.04 0 0 452.56zm2032.16 5.04l-770.13 0c-82.99,-99.7 -124.87,-382.96 -124.87,-849.71l0 -5.05 4.18 -211.16c4.28,-293.28 5.92,-442.45 5.92,-449.15 0,-119.82 -78.81,-179.39 -236.33,-179.39l0 1689.42 -774.3 0 0 -3519.55 954.47 0c217.87,0 407.26,50.24 568.19,150.05 161.7,99.7 242.16,257.22 242.16,472.57l0 422.32c0,273.27 -159.27,457.61 -478.49,553.91 319.22,75.41 478.49,269.86 478.49,582.48l-10.1 385.4c0,563.14 46.94,882.47 140.81,957.87zm-884.89 -2308.72l0 -578.97c0,-123.22 -78.81,-184.34 -236.33,-184.34l0 950.19c157.52,0 236.33,-61.99 236.33,-186.87z"/>
   <path class="fil1" d="M3374.52 0l-2978.83 0c-151.15,0 -283.2,85.88 -349.78,211.24l3328.6 0 0 -211.24zm-3374.52 422.46l0 211.25 3374.52 0 0 -211.25 -3374.52 0zm0 422.51l0 211.21 3374.52 0 0 -211.21 -3374.52 0zm0 422.47l0 211.25 1747.46 0 0 -53.26 58.95 53.26 1568.11 0 0 -211.25 -3374.52 0zm0 422.47l0 211.25 1747.46 0 0 -211.25 -1747.46 0zm2274.22 211.25l1100.29 0 0 -211.25 -1334.22 0 233.92 211.25zm-2274.22 211.2l0 211.25 1747.46 0 0 -211.25 -1747.46 0zm2741.98 211.25l632.53 0 0 -211.25 -866.46 0 233.92 211.25zm-2741.98 211.25l0 211.21 1747.46 0 0 -211.21 -1747.46 0zm2414.8 211.21l959.72 0 0 -211.21 -626.18 0 -333.54 211.21zm-2414.8 211.25l0 211.25 1747.46 0 0 -211.25 -1747.46 0zm1747.46 211.25l665.57 0 -158.04 -211.25 -173.87 0 -333.66 211.25zm952.13 0l674.92 0 0 -211.25 -832.96 0 158.04 211.25zm-2699.59 211.21l0 211.25 2729.11 0 -158.04 -211.25 -2571.08 0zm3015.63 211.25l358.88 0 0 -211.25 -516.92 0 158.04 211.25z"/>
  </g>
 </g>
</svg>
